<?xml version="1.0" encoding="utf-8"?>
<!-- Generator: Adobe Illustrator 24.1.0, SVG Export Plug-In . SVG Version: 6.00 Build 0)  -->
<svg version="1.1" id="Layer_1" xmlns="http://www.w3.org/2000/svg" xmlns:xlink="http://www.w3.org/1999/xlink" x="0px" y="0px"
	 viewBox="0 0 761.8 478.2" style="enable-background:new 0 0 761.8 478.2;" xml:space="preserve">
<path d="M491.1,2c12.1,9.6,24.5,24,36.9,42.8c11.7,17.7,23.3,39.5,34.7,64.6c10.5,23.3,20.8,49.6,30.5,78.3
	c18.9,56.1,34.1,113.3,45.6,171.4c-1.5-6.8-3-13.6-4.7-20.6c-6.6-27.7-14.5-55.9-23.4-83.7c-9.4-29.3-19.8-57.6-31-84.2
	c-11.1-26.7-23.7-52.7-37.8-78C527.7,67.4,513,45.4,498,27.4c-8-9.8-16.7-18.9-26.1-27.4h-43.1c1.9,1,3.7,2.1,5.6,3.3
	c14.6,9.1,29.4,22.7,44,40.3c14,16.8,27.9,37.5,41.3,61.4c13.6,24.4,25.8,49.6,36.5,75.3c3.3,7.9,6.6,15.9,9.7,24.1
	c-6.5-15.1-13.4-29.9-20.6-44.2c-13.1-26.2-27.9-51.5-44.3-75.8c-16.6-24.2-33.9-45.3-51.5-62.5c-7.9-7.8-16.3-15.2-25.1-22H0
	c32.4,0,64.7,3.2,96.4,9.7c30.8,6.3,60.8,15.6,89.7,27.9c28.4,12,55.6,26.8,81.2,44.1c25.4,17.2,49.1,36.7,70.8,58.4
	c21.7,21.7,41.2,45.4,58.4,70.8c17.3,25.6,32,52.8,44.1,81.2c12.2,28.9,21.6,59,27.9,89.7c6.5,31.7,9.7,64,9.7,96.4h197.5
	c0-14.9-1.5-33.8-4.3-56.1s-7-46.9-12.3-73.1c-5.5-27.4-12-55.3-19.4-83c-7.9-29.7-16.5-58.4-25.7-85.4
	c-10-29.2-20.5-56.2-31.3-80.2c-11.8-26.2-24-49-36.3-67.6c-7.5-11.6-16-22.6-25.4-32.8h-32.5C489.3,0.7,490.2,1.3,491.1,2z"/>
<path d="M547.9,0.7c9.8,10.2,19.8,25.5,29.8,45.4c9.4,18.6,18.8,41.5,27.9,67.9c8.4,24.2,16.7,51.5,24.5,81.2
	c13.7,51.7,26.4,111.1,35.6,167.2c8.2,49.5,13,92.8,13,115.8h18.3c0-11.8-1.2-28.8-3.5-49.1c-2.3-20.5-5.7-44.7-9.8-69.7
	c-9.3-56.7-22.1-116.7-36-168.9c-8-30.1-16.4-57.8-25-82.4c-9.4-27.1-19.1-50.7-28.9-70.1c-7.5-15-15.2-27.7-22.9-37.9h-24
	L547.9,0.7z"/>
<path d="M627.8,47.8c7,19.5,14.1,43.5,21.1,71.1c6.3,25,12.5,53.3,18.5,84c10.1,52.1,19.6,112,26.8,168.7c6,47.9,9.8,88.7,9.8,106.7
	h14.8c0-36.1-14.3-162.4-36.8-278.1c-12.9-66-26.4-119-40.2-157.3c-6.2-17.3-12.6-31.7-18.9-42.8h-17.3
	C612.8,10.9,620.3,27,627.8,47.8z"/>
<path d="M678.1,49.8c9,39,17.9,93.2,26.5,161C719.8,331,729,455.5,729,478.2h11.2c0-22.9-9.3-148.1-24.5-268.8
	c-8.6-68.2-17.6-122.8-26.7-162.1c-4.5-19.6-9-35.4-13.6-47.3h-12.1C668.2,11.6,673.2,28.3,678.1,49.8z"/>
<path d="M722,4c2.5,13.6,5,32.7,7.5,56.8c4.3,41.1,8.6,96.9,12.8,165.8c7.2,118.7,11.8,240,11.8,251.6h7.7
	c0-12.3-4.8-138.1-12.2-259.7c-4.3-70.5-8.8-126.7-13.3-167.2c-2.4-21.7-4.8-38.9-7.2-51.3h-7.8C721.5,1.3,721.7,2.6,722,4z"/>
</svg>
