<?xml version="1.0" encoding="utf-8"?>
<!-- Generator: Adobe Illustrator 23.0.1, SVG Export Plug-In . SVG Version: 6.00 Build 0)  -->
<svg version="1.1" id="Layer_1" xmlns="http://www.w3.org/2000/svg" xmlns:xlink="http://www.w3.org/1999/xlink" x="0px" y="0px"
	 viewBox="0 0 505 820" style="enable-background:new 0 0 505 820;" xml:space="preserve">
<style type="text/css">
	.st0{fill:#FFFFFF;}
</style>
<g>
	<g>
		<path class="st0" d="M-162.2,278.4c7-16.1,18.3-29.5,31.8-40.6c14.1-11.4,32.1-23.8,50.2-27.1c16.1-2.9,41.3,7.4,33.4,27.8
			c-3.6,9.5-13.7,13-22.2,7.3c-8.9-6-12.7-17.4-13.5-27.6c-3-40.6,33.6-67.5,64.9-85.2c33.1-18.6,71.3-32.4,109.7-25.1
			c39.9,7.6,76.2,42.3,68.9,85.6c-0.4,2.5,3.4,3.6,3.8,1.1c6.9-40.9-23.4-76.9-61.3-88c-44.7-13.1-90.5,3.8-129,26.5
			c-18.7,11.1-37.3,24.2-49.2,42.8c-10.8,17-16.1,39.8-7.8,59c5.8,13.4,23.5,25.7,35.6,11.7c10.9-12.6,4-30.2-9.8-36.8
			c-21.4-10.3-45.1,3.6-62.8,15.3c-19.5,12.9-36.7,29.6-46.1,51.4C-166.6,278.7-163.2,280.7-162.2,278.4L-162.2,278.4z"/>
	</g>
</g>
<g>
	<g>
		<path class="st0" d="M100.1,167.3c-1.1-16.7,6.2-32.5,14.4-46.7c6.7-11.6,14.8-22.4,23.9-32.1c18.8-20,42.1-35.8,67.8-45.5
			c26.4-10,57.3-15.2,85-7.4c31.7,9,49.1,37.7,53,69.1c1.9,15.4-1.3,31.7-16.2,39.4c-12,6.1-29.1,5.3-37.6-6.3
			c-6-8.2-2.7-16.7,5.6-21.3c7.1-3.9,15.8-4.4,23.6-3.5c16.1,1.9,30.7,10.8,42.4,21.5c45.5,41.8,57.9,112.3,53.7,171.4
			c-2.5,35.1-12.8,69.9-33.9,98.4c-9.8,13.2-21.7,24.9-35.5,33.8c-13.4,8.7-42.7,22.4-50.7-0.4c-0.8-2.4-4.6-1.4-3.8,1.1
			c4.9,14,20.4,17.6,33.5,14c15.5-4.3,29.9-14.9,41.5-25.7c25.5-23.8,41.4-56.1,48.5-89.9c7.6-36.2,6.5-74.8-1.2-110.9
			c-7.2-33.9-21.8-67.7-47-92.2c-11.8-11.5-26.6-21.1-42.9-24.2c-12.4-2.3-29.2-1.5-37.6,9.5c-8.9,11.6,1.2,25.4,12.6,30.1
			c11.6,4.8,25.5,2.6,35.6-4.8c12.3-9.1,15.1-24.5,13.5-38.9c-1.8-16.3-7.2-32.8-16.6-46.3c-20.1-28.6-56-34.3-88.5-29.8
			c-61.7,8.5-120.8,52.2-142.6,111.3c-3.2,8.6-4.9,17.4-4.3,26.6C96.4,169.8,100.3,169.8,100.1,167.3L100.1,167.3z"/>
	</g>
</g>
<g>
	<g>
		<path class="st0" d="M401.4,491.8c24.3,10.6,50.2,22,65.7,44.6c15,21.8,19,49.6,16,75.5c-5.6,48.6-36.6,93.6-79.9,116.2
			c-13.6,7.1-29.5,12.9-45,9.9c-12.1-2.3-24.4-10.8-27.1-23.4c-2.6-11.8,6.3-28.5,20-27.2c13.9,1.3,7.5,29.3,4.8,37.8
			c-7.2,23-24.9,42.5-46.5,53c-23.9,11.6-52.1,11.4-77,3.6c-56.9-17.8-97-74.7-95.1-134.2c0.1-2.5-3.9-2.5-3.9,0
			c-1.9,58.8,36,115,91,135.6c26.9,10.1,57.9,11.6,84.5-0.4c24.3-10.9,44.1-32.7,51.5-58.3c1.6-5.5,2.6-11.3,2.9-17
			c0.3-5.8,0.9-14.6-2.8-19.6c-6.3-8.2-19.2-3.9-25.3,2.1c-19.1,18.7-2.4,45.4,19.5,51.2c27.7,7.3,58.3-11.3,78.6-28.6
			c21.1-18,37.3-41.7,46.5-67.9c10.6-30,12.3-64.8-0.4-94.5c-14-32.8-44.7-48.3-75.8-61.8C401.1,487.4,399.1,490.8,401.4,491.8
			L401.4,491.8z"/>
	</g>
</g>
<g>
	<g>
		<path class="st0" d="M-279.3,401.5c-36.1,11.4-60.8,43.1-74.4,77.2c-7.2,18.1-12.7,39.1-3.8,57.6c7,14.6,23.8,24,39.5,17.2
			c12.5-5.4,17.4-21.9,8.9-33c-10.7-14-28.4-4.1-36.8,6.7c-11.9,15.3-16.4,37.1-17.1,56.1c-0.8,19.6,3.2,39.4,11.5,57.2
			c18.6,39.5,59.3,65.8,102.5,68.5c2.5,0.2,2.5-3.8,0-3.9c-32.2-2.1-62.7-17.6-83.5-42.2c-22.1-26.2-30.8-62.2-24.9-95.7
			c2.9-16.2,8.7-35.7,22.8-45.6c7.2-5,17.6-5.9,22.9,2.1c4.3,6.4,3.7,15.9-1.5,21.7c-5.5,6.1-14.7,7.5-22.4,5.6
			c-9.4-2.4-16.2-10.1-19.7-18.8c-6.8-17.1-1.3-36,5.2-52.3c13-32.8,37-63.4,71.6-74.4C-275.9,404.5-276.9,400.7-279.3,401.5
			L-279.3,401.5z"/>
	</g>
</g>
<g>
	<g>
		<path class="st0" d="M142.7,428.8c28.8,31.3,21.3,78.8-4.6,109.2c-13,15.3-30.1,27.9-48.8,35.1c-18.9,7.2-42.7,8.5-58.3-6.5
			c-11.9-11.4-18.4-31.7-7.1-45.7c12.1-15.1,35.4-13.9,50.1-3.5c16.6,11.9,25.6,33.7,27.1,53.5c1.6,22.6-8.7,41.2-28.5,52
			c-39.9,21.8-92,14.8-127.5-12.2c-2-1.5-4,1.9-2,3.4c36,27.3,87.9,34.1,128.8,13.6c20.8-10.4,33.6-28.9,33.3-52.6
			c-0.3-20.6-8.7-43.3-24.3-57.3C66.9,505.5,45.5,501,29,511.2c-14.9,9.2-18.1,27.4-11.4,42.8c8.1,18.9,26.8,28.8,46.9,28.2
			c22.6-0.6,44.2-12.2,61.2-26.4c19.3-16.1,34.6-38.3,38.5-63.5c3.7-23.7-2.4-48.5-18.7-66.3C143.7,424.1,141,427,142.7,428.8
			L142.7,428.8z"/>
	</g>
</g>
<g>
	<g>
		<path class="st0" d="M86.9,421.7c-22.7-11.3-33.8-39.1-27.6-63.4c6.7-26.5,33.6-43.9,60-45c13.2-0.5,27.7,3.1,36.8,13.3
			c10.9,12.2,5,27.7-8.7,34.4c-14.3,7-35.9,5.5-37.3-14c-1-14.5,5.4-30.3,12.9-42.4c18.6-30.1,53.2-46.1,88.2-42.3
			c2.5,0.3,2.5-3.7,0-3.9c-36.7-4.1-73,13.4-92.1,45.1c-8,13.3-15.1,31.2-12.5,47c2.7,16.3,18.8,20.6,33.2,17.4
			c12.5-2.8,25.5-11.9,26.2-25.8c0.7-14.6-12-25-24.5-29.6c-28.2-10.5-63.6,3.8-79.2,28.8c-17.4,28-7.2,68.8,22.6,83.7
			C87.1,426.3,89.1,422.9,86.9,421.7L86.9,421.7z"/>
	</g>
</g>
<g>
	<g>
		<path class="st0" d="M-633.9,379.6c-34.5,9.3-40.3,62.8-17.2,85.8c11.6,11.5,30,16.1,44.2,6.8c12.7-8.3,17.8-24.3,10.2-37.8
			c-11.2-19.8-35.7-21.8-56-22.6c-2.5-0.1-2.5,3.8,0,3.9c19,0.7,43,2.3,53,21.5c10.2,19.6-10.1,39.5-29.9,35.6
			c-20.8-4.1-31.6-24.9-31.3-44.7c0.2-18.3,8.9-39.6,28.1-44.7C-630.4,382.7-631.4,378.9-633.9,379.6L-633.9,379.6z"/>
	</g>
</g>
<g>
	<g>
		<path class="st0" d="M-344.4,805.5c107.3,46.2,231.8,48.2,341.2,7.6c30.5-11.3,59.7-25.9,87-43.6c2.1-1.4,0.1-4.8-2-3.4
			c-96.6,62.6-217,85.3-330,64.5c-32.3-5.9-64-15.5-94.2-28.5C-344.8,801.1-346.8,804.5-344.4,805.5L-344.4,805.5z"/>
	</g>
</g>
</svg>
