<?xml version="1.0" encoding="utf-8"?>
<!-- Generator: Adobe Illustrator 23.0.1, SVG Export Plug-In . SVG Version: 6.00 Build 0)  -->
<svg version="1.1" id="Layer_1" xmlns="http://www.w3.org/2000/svg" xmlns:xlink="http://www.w3.org/1999/xlink" x="0px" y="0px"
	 viewBox="0 0 505 820" style="enable-background:new 0 0 505 820;" xml:space="preserve">
<style type="text/css">
	.st0{fill:#FFFFFF;}
</style>
<g>
	<path class="st0" d="M-3.7,383.5c56.9,7.2,109.8-22.3,153.4-55.7c46.1-35.3,88.5-77.9,144-98.5c25.8-9.6,57-15.6,84-7.5
		c13.7,4.1,28,16.2,24.5,32.1c-2.9,13-16,21.1-27.2,26.4c-13.4,6.4-27.8,10.9-42.4,13.5c-7,1.2-15.2,2.5-21.9-0.9
		c-8.2-4.2-11.4-15.6-2.1-20.5c13.9-7.4,26.9,9.5,29.9,21.2c3,11.8,0.6,24.8-5.5,35.3c-7.6,13-20,22.5-32.9,29.8
		c-14.1,8-29.1,14.4-44.4,19.6c-32,10.9-65.7,16.2-99.5,15.8c-1.9,0-1.9,3,0,3c33.1,0.4,66.2-4.6,97.7-15
		c14.9-4.9,29.6-11,43.5-18.4c12.6-6.7,24.8-15,33.6-26.4c14-18.2,18.1-49.3-2.6-64.5c-8.4-6.2-23.3-7.3-27.8,4.4
		c-4.4,11.6,8,20.1,18,20.9c7.5,0.6,15.4-1.2,22.8-2.8c8.2-1.9,16.3-4.3,24.1-7.4c12.3-4.8,25.5-10.7,33.9-21.3
		c7.7-9.7,8.4-22.3,1.2-32.6c-8-11.4-21.8-15.8-35-17.4c-65.4-7.9-123.7,33.1-171.7,72.1C143.2,329.5,89.1,378,20.4,381.4
		c-8.1,0.4-16.1,0-24.2-1C-5.6,380.2-5.6,383.2-3.7,383.5L-3.7,383.5z"/>
</g>
<g>
	<path class="st0" d="M80.6,430.4c76.9-0.4,153.8-0.8,230.8-1.2c36.8-0.2,75-0.8,111.1,7.3c15.7,3.5,31.9,9.5,43.2,21.4
		c10.1,10.6,16.5,26.4,13.2,41c-3.5,15.6-17.2,24.6-31.6,29.1c-15.9,4.9-33.2,6.3-49.7,7.2c-36.4,1.8-73.1-2.6-108-13
		c-6.7-2-14.6-4-19.5-9.4c-3.2-3.6-4.1-8.5-1.7-12.7c3-5.3,9-7.7,14.8-8.1c16.4-1.2,34.2,6.3,47.1,15.9
		c12.8,9.6,26.2,26.1,21.6,43.2c-4.9,18.1-25.7,23.6-42,25.1c-72.4,6.7-147.1-2-216.8-22.2c-8.7-2.5-17.4-5.2-26-8.1
		c-1.8-0.6-2.6,2.3-0.8,2.9c76.8,25.8,159,36.8,239.8,30.7c16-1.2,33.7-4.3,43.9-18c9.6-13,5.6-29.5-3.4-41.7
		c-9.6-13-24.4-22.4-39.8-27.3c-12.7-4-35.3-8.3-41.8,7.7c-6,14.6,12.4,21.5,22.8,24.6c18.8,5.7,38.2,9.6,57.7,11.8
		c20,2.2,40.2,2.6,60.3,1.1c16.5-1.3,34-2.9,49.4-9.4c13.5-5.7,24.7-16.2,26.9-31.2c2-13.8-3.3-28.1-12.1-38.6
		c-10.6-12.6-26.5-19.6-42.1-23.7c-18.6-4.8-38.1-6.4-57.2-7.5c-42.9-2.4-86.1-0.9-129-0.7c-43.1,0.2-86.2,0.4-129.4,0.6
		c-10.6,0.1-21.2,0.1-31.8,0.2C78.7,427.4,78.7,430.4,80.6,430.4L80.6,430.4z"/>
</g>
<g>
	<path class="st0" d="M-53.6,274.8c72.2,1.6,142.6-31.5,186.7-88.7c21.7-28.1,35-59.7,43.4-94c4.2-17.3,11.8-38.8,32.1-42
		c9.7-1.5,18.2,3.7,22.7,12.1c4.9,9.1,4.3,19.7,1.3,29.3c-6,19.2-19.2,37.1-33.4,51.1c-14.2,14.1-31.1,25.3-49.7,32.8
		c0.4,0.9,0.8,1.8,1.2,2.7c13.9-9,32.6-17.7,48.3-7.5c17.9,11.6,9.3,34.7-3.3,46.4c-25.1,23.5-62.2,27.1-94.8,30.2
		c-1.9,0.2-1.9,3.2,0,3c29.8-2.9,61.8-6.1,87.2-23.5c11.2-7.7,21.9-18.4,23.8-32.5c1.7-12.8-4.8-24.4-16.9-29
		c-16.1-6.1-32.5,1.5-45.9,10.2c-1.3,0.9-0.5,3.4,1.2,2.7c32.5-13.2,60.2-37.3,77.2-68c8.4-15.2,15.5-34.5,5.7-50.8
		c-8.2-13.6-24.5-15.8-37.4-7.5c-15.4,9.9-19.6,28.4-23.6,45c-4.4,18.4-10.9,36.2-19.6,53c-17.8,34.2-44.2,63.8-76.5,84.9
		c-38.3,25-84,37.9-129.7,36.9C-55.5,271.7-55.5,274.7-53.6,274.8L-53.6,274.8z"/>
</g>
<g>
	<path class="st0" d="M15.6,444.5c33.8,45.2,84.6,71.8,132.9,98.5c48,26.6,98.1,57,125,106.8c12,22.3,23.4,56.5,1.6,76.8
		c-9.8,9.1-23.4,13.1-36.3,15.4c-13.1,2.4-26.5,2.8-39.7,1.4c-26.8-2.8-52.9-13.3-73.9-30.2c-5-4-10.1-8.3-13.5-13.8
		c-4.6-7.4-5.4-17.9,2.8-23.2c12.6-8.1,28.2,2.2,39,9c7.1,4.5,14.3,10.2,16.4,18.8c2.3,9.8-3.5,17-12.8,19.3
		c-14.1,3.5-30.9,1.3-45-1.3c-30.5-5.5-59.1-19.6-82-40.4c-1.4-1.3-3.6,0.8-2.1,2.1c21.9,19.9,48.9,33.7,77.7,40
		c14.3,3.1,29.4,4.6,44,3.6c10.9-0.8,23-5.1,23.7-17.8c0.8-14.2-11.7-23.1-22.5-29.5c-10.8-6.3-24.2-13.8-36.7-7.2
		c-11.5,6.2-10.5,20.7-3.6,30c8.1,11.1,21.2,19.6,33.2,26.2c24.9,13.7,53.9,19.9,82.2,17.6c25.3-2.1,56.8-10.6,63.2-39
		c6.1-27.5-9.6-57.4-25.3-78.9c-17.4-23.7-40.2-43-64.6-59.2c-54.6-36.4-118.7-59.8-164.9-107.8c-5.7-6-11.1-12.3-16.1-18.9
		C17,441.4,14.4,442.9,15.6,444.5L15.6,444.5z"/>
</g>
</svg>
